<?xml version="1.0" encoding="UTF-8"?>
<svg id="_图层_2" data-name="图层_2" xmlns="http://www.w3.org/2000/svg" xmlns:xlink="http://www.w3.org/1999/xlink" viewBox="0 0 843.82 843.82">
  <defs>
    <style>
      .cls-1 {
        fill: #fff;
      }

      .cls-2 {
        fill: url(#_未命名的渐变_17);
        opacity: .65;
      }

      .cls-3 {
        fill: url(#_未命名的渐变_20);
        opacity: .8;
      }

      .cls-4 {
        fill: url(#_未命名的渐变_14);
        opacity: .7;
      }
    </style>
    <linearGradient id="_未命名的渐变_14" data-name="未命名的渐变 14" x1="127" y1="365.54" x2="684.13" y2="365.54" gradientUnits="userSpaceOnUse">
      <stop offset="0" stop-color="#b1527c"/>
      <stop offset="1" stop-color="#6a52d3"/>
    </linearGradient>
    <radialGradient id="_未命名的渐变_20" data-name="未命名的渐变 20" cx="-10698.93" cy="-10485.87" fx="-10340.97" fy="-10702.24" r="609.34" gradientTransform="translate(11230.04 11030.97)" gradientUnits="userSpaceOnUse">
      <stop offset=".13" stop-color="#000" stop-opacity=".3"/>
      <stop offset=".16" stop-color="#1f1f1f" stop-opacity=".3"/>
      <stop offset=".22" stop-color="#747474" stop-opacity=".3"/>
      <stop offset=".23" stop-color="gray" stop-opacity=".3"/>
      <stop offset=".25" stop-color="#858585" stop-opacity=".33"/>
      <stop offset=".29" stop-color="#949494" stop-opacity=".41"/>
      <stop offset=".33" stop-color="#acacac" stop-opacity=".55"/>
      <stop offset=".38" stop-color="#cecece" stop-opacity=".73"/>
      <stop offset=".44" stop-color="#f9f9f9" stop-opacity=".97"/>
      <stop offset=".44" stop-color="#fff"/>
      <stop offset=".65" stop-color="#fff"/>
    </radialGradient>
    <radialGradient id="_未命名的渐变_17" data-name="未命名的渐变 17" cx="-10699.43" cy="-10485.88" fx="-10312.84" fy="-10539.93" r="609.34" gradientTransform="translate(11230.04 11030.97)" gradientUnits="userSpaceOnUse">
      <stop offset=".13" stop-color="#000" stop-opacity=".3"/>
      <stop offset=".17" stop-color="#1f1f1f" stop-opacity=".3"/>
      <stop offset=".25" stop-color="#747474" stop-opacity=".3"/>
      <stop offset=".26" stop-color="gray" stop-opacity=".3"/>
      <stop offset=".28" stop-color="#858585" stop-opacity=".33"/>
      <stop offset=".31" stop-color="#949494" stop-opacity=".41"/>
      <stop offset=".35" stop-color="#acacac" stop-opacity=".55"/>
      <stop offset=".4" stop-color="#cecece" stop-opacity=".73"/>
      <stop offset=".45" stop-color="#f9f9f9" stop-opacity=".97"/>
      <stop offset=".46" stop-color="#fff"/>
      <stop offset=".82" stop-color="#fff"/>
    </radialGradient>
  </defs>
  <g id="_图层_2-2" data-name="图层_2">
    <g>
      <rect x="0" y="0" width="843.82" height="843.82" rx="146.41" ry="146.41"/>
      <path class="cls-1" d="M174.85,515.2c-3.76.92-7.55,1.74-11.36,2.43-5.08.91-10.22,1.57-15.38,1.79-2.3.1-4.6.11-6.9-.03-1.45-.09-2.9-.25-4.32-.55-1.1-.23-2.19-.54-3.23-.99-.77-.33-1.5-.74-2.15-1.27-.77-.62-1.4-1.41-1.99-2.21-.64-.86-1.22-1.74-1.73-2.67-.13-.23-.25-.46-.37-.69-.63-1.25-.55-2.16.26-3.29,3.07-4.27,6.37-8.32,9.95-12.18.09-.1.18-.2.28-.3,1.74-1.85,3.47-3.71,5.21-5.56,18.23-18.98,44.22-39.23,65.35-54.59,29.3-21.08,59.33-40.89,90.24-59.53,34.72-21.05,70.03-40.95,106.03-59.74,37.82-19.84,76.24-38.24,115.41-55.26,31.86-14.03,64.25-26.19,97.48-36.59,13.35-4.14,26.83-7.45,40.57-9.98,7.38-1.41,14.75-2.21,22.27-2.41,1.48-.04,2.79.94,3.17,2.37.14.52.25,1.05.33,1.58.19,1.23.22,2.48.13,3.72-.09,1.32-.33,2.64-.66,3.93-.36,1.41-.83,2.79-1.38,4.14-.69,1.71-1.51,3.36-2.42,4.96-1.38,2.42-2.97,4.7-4.69,6.89-2.23,2.83-4.67,5.49-7.21,8.04-2.72,2.73-5.56,5.33-8.43,7.9-.86.77-1.77,1.23-2.9,1.47-8.93,1.93-17.74,4.23-26.47,6.94-31.76,9.94-62.73,21.57-93.19,34.99-38.29,16.63-75.84,34.61-112.81,54.01-35.24,18.4-69.81,37.87-103.8,58.49-29.94,18.05-59.03,37.24-87.41,57.65-17.1,12.24-33.41,25.31-49.08,39.34-1.97,1.87-3.94,3.75-5.91,5.62-.85.81-1.75,1.3-2.89,1.57Z"/>
      <path class="cls-4" d="M174.85,515.2c-3.76.92-7.55,1.74-11.36,2.43-5.08.91-10.22,1.57-15.38,1.79-2.3.1-4.6.11-6.9-.03-1.45-.09-2.9-.25-4.32-.55-1.1-.23-2.19-.54-3.23-.99-.77-.33-1.5-.74-2.15-1.27-.77-.62-1.4-1.41-1.99-2.21-.64-.86-1.22-1.74-1.73-2.67-.13-.23-.25-.46-.37-.69-.63-1.25-.55-2.16.26-3.29,3.07-4.27,6.37-8.32,9.95-12.18.09-.1.18-.2.28-.3,1.74-1.85,3.47-3.71,5.21-5.56,18.23-18.98,44.22-39.23,65.35-54.59,29.3-21.08,59.33-40.89,90.24-59.53,34.72-21.05,70.03-40.95,106.03-59.74,37.82-19.84,76.24-38.24,115.41-55.26,31.86-14.03,64.25-26.19,97.48-36.59,13.35-4.14,26.83-7.45,40.57-9.98,7.38-1.41,14.75-2.21,22.27-2.41,1.48-.04,2.79.94,3.17,2.37.14.52.25,1.05.33,1.58.19,1.23.22,2.48.13,3.72-.09,1.32-.33,2.64-.66,3.93-.36,1.41-.83,2.79-1.38,4.14-.69,1.71-1.51,3.36-2.42,4.96-1.38,2.42-2.97,4.7-4.69,6.89-2.23,2.83-4.67,5.49-7.21,8.04-2.72,2.73-5.56,5.33-8.43,7.9-.86.77-1.77,1.23-2.9,1.47-8.93,1.93-17.74,4.23-26.47,6.94-31.76,9.94-62.73,21.57-93.19,34.99-38.29,16.63-75.84,34.61-112.81,54.01-35.24,18.4-69.81,37.87-103.8,58.49-29.94,18.05-59.03,37.24-87.41,57.65-17.1,12.24-33.41,25.31-49.08,39.34-1.97,1.87-3.94,3.75-5.91,5.62-.85.81-1.75,1.3-2.89,1.57Z"/>
      <g>
        <g>
          <path class="cls-1" d="M637.66,392.6c0,.95,0,1.89-.02,2.84-1.19,138.01-89.75,255.18-213.07,298.88v-84.37c-1.43.04-2.87.05-4.31.05-120.07,0-217.41-97.33-217.41-217.4s97.34-217.41,217.41-217.41,215.86,95.81,217.38,214.57c.02.95.02,1.89.02,2.84Z"/>
          <path class="cls-3" d="M637.64,395.66c-1.19,138.02-89.75,255.18-213.07,298.89v-84.37c117.14-2.27,211.57-97.19,213.07-214.52Z"/>
        </g>
        <path class="cls-2" d="M637.14,395.66c-1.19,138.02-89.75,255.18-213.07,298.89v-84.37c117.14-2.27,211.57-97.19,213.07-214.52Z"/>
        <path d="M276.91,556.72c47.29-19.91,101.85-50.68,156.94-89.95-67.57,32.82-132.47,55.2-184.9,65.42,8.6,8.95,17.95,17.16,27.96,24.53"/>
      </g>
      <path class="cls-1" d="M120.37,552.07c-2.07-3.83-3.27-7.69-3.74-12.01-.5-5.11-.02-9.75,1.53-14.48.32-.98,1.61-1.28,2.3-.51.52.58,1.07,1.13,1.65,1.64,1.39,1.23,2.94,2.27,4.59,3.12,1.5.77,3.09,1.38,4.71,1.86,1.71.51,3.45.88,5.22,1.13,2,.29,4.02.42,6.05.47,2.42.06,4.84,0,7.25-.14,5.17-.29,10.32-.93,15.42-1.82,6-1.05,11.94-2.45,17.84-4,2.69-.71,5.37-1.45,8.05-2.2,4.98-1.4,9.95-2.85,14.9-4.37,10.63-3.25,21.18-6.79,31.64-10.55,13.92-5,27.7-10.39,41.38-16.01,26.35-10.83,52.34-22.51,78.04-34.81,17.13-8.2,34.13-16.67,51-25.39,25.18-13.01,50.08-26.58,74.67-40.68,18.48-10.59,36.78-21.49,54.85-32.75,13.3-8.28,26.47-16.76,39.49-25.48,6.37-4.26,12.7-8.58,18.99-12.95,10.92-7.58,21.72-15.33,32.25-23.45,6.38-4.92,12.66-9.97,18.86-15.12,5.12-4.26,10.19-8.58,15.24-12.93,3.07-2.64,6.13-5.3,9.12-8.03,3.77-3.43,7.44-6.99,10.81-10.81,3.1-3.52,5.95-7.28,8.37-11.3,1.31-2.17,2.49-4.41,3.51-6.73.79-1.79,1.48-3.62,2.03-5.49.39-1.3.71-2.62.96-3.96.32-1.71.53-3.44.59-5.17.05-1.37,0-2.74-.13-4.1-.09-.95.8-1.69,1.72-1.43,8.78,2.46,16.24,8.38,20.62,16.44,2.07,3.82,3.27,7.69,3.74,12.01,1.11,10.21-2.76,19.09-7,26.19-4.49,7.52-10.65,15.07-18.63,23.38-6.4,6.6-13.06,12.9-20,18.93-.17.15-.34.3-.52.46-14.71,12.68-29.91,24.66-45.68,36-5.88,4.17-11.75,8.35-17.63,12.52-23.74,16.41-47.92,32.07-72.61,47.01-34.72,21.05-70.03,40.95-106.03,59.74-37.82,19.84-76.24,38.24-115.41,55.26-31.86,14.03-64.25,26.19-97.48,36.59-3.81,1.1-7.63,2.2-11.44,3.3-21.05,5.77-38.03,8.94-52.32,9.13-6.88.09-13.67-.54-19.87-2.68-2.92-1-5.91-2.4-8.85-4.49-3.82-2.7-7.31-6.32-10.02-11.35Z"/>
      <g>
        <path d="M566.48,293.53c3.87,1.52,6.72,5.69,6.35,9.32-.08.76-.16,1.52-.26,2.28-.09.76-.2,1.52-.32,2.27-.11.75-.24,1.5-.38,2.25-.13.71-.27,1.41-.41,2.11-1.02,4.85-2.48,9.56-4.38,14.08-.08.19-.15.37-.23.55-.06.14-.12.28-.19.42-.31.72-.63,1.43-.96,2.14-.64,1.35-1.33,2.69-2.05,4-.36.66-.74,1.31-1.12,1.96-.38.64-.78,1.28-1.18,1.92-.4.63-.81,1.25-1.23,1.87-.01,0-.02.02-.02.04-.42.61-.85,1.22-1.29,1.82,0,0,0,.01,0,.01-.39.54-.78,1.07-1.19,1.59-.89,1.16-1.83,2.3-2.8,3.41-.2.24-.41.47-.62.7-.43.48-.86.95-1.29,1.41-.51.54-1.03,1.07-1.56,1.59-.54.55-1.1,1.09-1.68,1.62-.45.42-.9.83-1.36,1.23-.3.28-.61.55-.92.81-.13.11-.26.22-.38.32-.72.62-1.46,1.22-2.22,1.81-.34.27-.69.54-1.04.8-1.51,1.15-3.09,2.25-4.72,3.3-.27.18-.54.35-.81.52-.19.12-.38.24-.57.35-.44.28-.89.55-1.35.81-.1.07-.21.13-.31.18-.66.4-1.34.78-2.02,1.15-.4.22-.81.44-1.22.65-.67.35-1.35.7-2.03,1.03-2.62,1.29-5.32,2.44-8.07,3.45-1.28.46-2.58.9-3.89,1.32-.02,0-.04.02-.06.02-.83.26-1.67.51-2.52.74-.47.13-.95.26-1.42.38-.31.09-.63.17-.95.25-.33.08-.66.16-1,.24l-.39.09c-.34.08-.69.16-1.04.24-.45.1-.91.19-1.36.29-.35.07-.71.14-1.06.21-.14.02-.29.05-.43.08-.66.12-1.32.24-1.99.35-.5.08-1,.16-1.5.23-.55.08-1.1.16-1.65.23-.3.04-.61.08-.92.11-.43.06-.87.11-1.3.15-.48.05-.96.1-1.44.14-.55.05-1.09.1-1.64.14-.05,0-.1.01-.16.01-.6.04-1.2.08-1.8.11-.6.04-1.2.06-1.81.08-.61.03-1.21.04-1.82.05s-1.22.02-1.83.02c-3.99,0-8.05-.23-12.15-.7-2.72-.31-5.45-.73-8.19-1.25-1.64-.31-3.28-.66-4.93-1.05-.59-.14-1.18-.28-1.77-.43-1.32-.33-2.64-.69-3.96-1.08-.45-.12-.9-.26-1.35-.4-2.17-.65-4.34-1.37-6.51-2.16-.43-.15-.87-.31-1.3-.48-.67-.25-1.35-.51-2.02-.77-4.56-1.79-7.22-6.99-5.95-11.56.62-2.26,2.1-3.94,3.97-4.83l114.81-54.61c1.4-.67,3.24-.7,5.17.07ZM561.67,318.63c.26-.67.5-1.34.73-2.02-.24.68-.48,1.35-.74,2.02h.01ZM529.48,354.71c12.99-6.93,22.55-16.82,28.7-28.43-13.28,1.22-26.47,4.97-39,11.3-12.95,6.55-24.55,15.53-34.26,26.55,16.05.83,31.32-2.36,44.56-9.42Z"/>
        <path d="M571.46,311.76c-1.02,4.89-2.47,9.6-4.36,14.08h-.02c1.9-4.52,3.36-9.23,4.38-14.08Z"/>
        <path class="cls-1" d="M567.1,325.84c-.08.19-.16.37-.25.55.08-.18.15-.36.23-.55h.02Z"/>
        <path class="cls-1" d="M566.66,326.81c-.3.72-.63,1.43-.96,2.14.33-.71.65-1.42.96-2.14Z"/>
        <path class="cls-1" d="M565.7,328.95c-.64,1.36-1.32,2.69-2.05,4,.72-1.31,1.41-2.65,2.05-4Z"/>
        <path d="M562.4,316.61c-.23.68-.47,1.35-.73,2.02h-.01c.26-.67.5-1.34.74-2.02Z"/>
        <path class="cls-1" d="M558.18,326.28c-6.15,11.61-15.71,21.5-28.7,28.43-13.24,7.06-28.51,10.25-44.56,9.42,9.71-11.02,21.31-20,34.26-26.55,12.53-6.33,25.72-10.08,39-11.3Z"/>
        <path d="M535.61,249.12c4.64,6.83,3.4,14.59-2.94,17.27-6.43,2.73-15.51-.86-20.1-7.96-4.52-6.99-2.89-14.59,3.5-17.05,6.29-2.42,14.97,1.02,19.54,7.74Z"/>
        <path class="cls-1" d="M514.75,369.76c.47-.12.95-.25,1.42-.38-.47.13-.94.26-1.42.38Z"/>
        <path d="M512.41,370.34l.39-.09c-.27.07-.55.13-.82.2.14-.04.29-.07.43-.11Z"/>
        <path class="cls-1" d="M512.41,370.34c-.14.04-.29.07-.43.11-.2.04-.41.08-.61.13.35-.08.7-.16,1.04-.24Z"/>
        <path d="M508.95,371.08c.35-.07.71-.14,1.06-.21-.35.08-.7.15-1.06.21Z"/>
        <path d="M506.53,371.51c.67-.11,1.33-.23,1.99-.35-12.1,2.3-25.02,2.21-38.2-.33,2.74.52,5.47.94,8.19,1.25,4.1.47,8.16.7,12.15.7.61,0,1.22-.01,1.83-.02s1.21-.02,1.82-.05c.61-.02,1.21-.04,1.81-.08.6-.03,1.2-.07,1.8-.11.06,0,.11-.01.16-.01.55-.04,1.1-.09,1.64-.14.48-.04.96-.09,1.44-.14.43-.04.87-.09,1.3-.15.31-.03.62-.07.92-.11.55-.07,1.1-.15,1.65-.23.5-.07,1-.15,1.5-.23Z"/>
        <path class="cls-1" d="M501.16,372.23c.43-.04.87-.09,1.3-.15-.43.06-.87.11-1.3.15Z"/>
        <path d="M465.39,369.78c1.65.39,3.29.74,4.93,1.05-1.64-.31-3.28-.66-4.93-1.05Z"/>
        <path d="M443.81,286.21c4.4,7.95,1.69,17.18-6.25,20.54-8.08,3.43-18.27-.59-22.55-8.9-4.21-8.16-1.01-17.2,6.96-20.27,7.83-3.01,17.52.82,21.84,8.63Z"/>
      </g>
    </g>
  </g>
</svg>