<svg xmlns="http://www.w3.org/2000/svg" width="1024" height="1024" viewBox="0 0 1024 1024">
<g>
<path d="M 480.00 1007.08 C463.05,1006.31 446.27,1004.57 439.88,1002.93 C437.90,1002.42 434.78,1002.00 432.95,1002.00 C431.13,1002.00 428.26,1001.59 426.57,1001.08 C424.88,1000.58 419.45,999.43 414.50,998.54 C401.40,996.17 395.73,994.90 393.76,993.89 C392.81,993.40 391.32,993.00 390.45,993.00 C389.58,993.00 386.54,992.30 383.69,991.44 C380.83,990.58 376.70,989.41 374.50,988.83 C372.30,988.25 369.60,987.42 368.50,986.99 C367.40,986.55 363.80,985.45 360.50,984.52 C354.60,982.88 352.99,982.32 348.00,980.21 C346.62,979.63 343.25,978.40 340.50,977.47 C333.29,975.04 331.99,974.52 327.16,972.14 C324.77,970.96 322.34,970.00 321.76,970.00 C320.61,970.00 317.02,968.36 295.00,957.73 C287.02,953.88 280.27,950.46 280.00,950.12 C279.73,949.78 277.48,948.48 275.00,947.23 C263.64,941.49 228.94,920.10 226.00,917.02 C225.73,916.74 224.60,915.93 223.50,915.24 C218.52,912.09 215.63,909.96 205.53,902.00 C165.83,870.72 130.75,834.14 104.14,796.29 C99.65,789.91 85.86,768.40 83.43,764.00 C82.37,762.08 81.24,760.28 80.93,760.00 C80.61,759.72 80.07,758.83 79.71,758.00 C79.36,757.17 77.50,753.80 75.58,750.50 C70.45,741.67 59.56,719.41 55.03,708.50 C54.57,707.40 53.25,704.37 52.10,701.76 C50.94,699.15 50.00,696.75 50.00,696.41 C50.00,696.08 49.28,694.16 48.40,692.15 C45.39,685.29 45.09,684.49 42.50,676.50 C41.08,672.10 39.48,667.72 38.96,666.76 C38.43,665.81 38.00,664.15 38.00,663.07 C38.00,662.00 37.58,660.86 37.06,660.54 C36.54,660.22 35.81,657.93 35.44,655.46 C35.07,653.00 34.37,650.73 33.88,650.43 C33.40,650.13 33.00,648.59 33.00,647.00 C33.00,645.41 32.60,643.87 32.11,643.57 C31.62,643.27 30.99,641.55 30.72,639.76 C30.08,635.62 26.27,619.48 24.98,615.43 C24.44,613.74 24.00,611.52 24.00,610.50 C24.00,609.48 23.58,607.26 23.07,605.57 C21.88,601.65 20.16,591.72 18.90,581.50 C18.35,577.10 17.49,570.12 16.97,566.00 C16.45,561.88 15.75,553.10 15.41,546.50 C15.07,539.90 14.39,534.07 13.90,533.55 C12.72,532.31 12.73,483.69 13.90,482.45 C14.40,481.93 15.07,476.77 15.40,471.00 C15.97,461.04 16.56,455.30 18.82,438.00 C20.43,425.59 26.03,397.42 29.06,386.50 C29.67,384.30 30.40,381.26 30.70,379.74 C30.99,378.22 31.63,376.73 32.12,376.43 C32.60,376.13 33.00,374.98 33.00,373.88 C33.00,371.62 35.66,362.41 37.07,359.76 C37.58,358.81 38.00,357.34 38.00,356.50 C38.00,355.66 38.44,354.19 38.98,353.24 C39.53,352.28 40.88,348.69 42.00,345.25 C44.38,337.90 49.29,325.17 51.93,319.50 C56.68,309.30 59.00,303.87 59.00,302.97 C59.00,302.44 59.45,302.00 60.00,302.00 C60.55,302.00 61.00,301.36 61.00,300.57 C61.00,299.20 62.19,296.79 72.34,277.69 C79.00,265.15 94.84,238.98 96.97,237.00 C97.26,236.73 99.30,233.84 101.50,230.60 C103.70,227.35 106.51,223.30 107.75,221.60 C108.99,219.89 111.08,216.93 112.40,215.00 C113.72,213.07 116.85,209.02 119.37,206.00 C121.89,202.98 126.10,197.85 128.72,194.60 C148.86,169.74 179.45,140.01 204.50,120.96 C208.35,118.03 211.73,115.37 212.00,115.05 C212.27,114.72 213.62,113.69 215.00,112.75 C216.38,111.82 220.65,108.84 224.50,106.13 C235.26,98.56 262.73,81.06 270.00,77.16 C285.01,69.10 316.07,54.00 317.62,54.00 C317.94,54.00 319.84,53.28 321.85,52.40 C325.65,50.73 326.56,50.36 334.00,47.52 C336.48,46.57 339.17,45.48 340.00,45.10 C340.83,44.72 346.90,42.68 353.50,40.58 C360.10,38.47 366.40,36.40 367.50,35.97 C369.49,35.20 378.12,32.76 385.25,30.95 C392.83,29.03 397.58,27.81 401.00,26.93 C404.28,26.08 410.41,24.87 421.00,22.97 C423.48,22.52 428.20,21.67 431.50,21.08 C462.15,15.57 515.50,13.12 547.00,15.77 C564.06,17.20 579.89,18.85 583.50,19.56 C585.15,19.89 589.20,20.57 592.50,21.09 C603.62,22.81 620.97,26.26 627.50,28.04 C629.70,28.64 633.08,29.52 635.00,29.99 C638.28,30.80 646.65,33.03 653.50,34.92 C657.54,36.03 680.99,43.85 683.50,44.91 C684.60,45.38 687.53,46.54 690.00,47.50 C692.47,48.46 695.40,49.59 696.50,50.02 C697.60,50.44 701.10,51.96 704.28,53.40 C707.45,54.83 710.28,56.00 710.56,56.00 C710.83,56.00 714.38,57.58 718.43,59.50 C722.49,61.42 726.26,63.00 726.82,63.00 C727.38,63.00 727.98,63.35 728.17,63.77 C728.35,64.20 733.22,66.90 739.00,69.79 C760.28,80.41 777.15,90.75 802.00,108.38 C806.67,111.69 810.72,114.66 811.00,114.96 C811.28,115.26 813.30,116.85 815.50,118.49 C823.54,124.47 834.31,133.43 845.49,143.45 C866.56,162.32 890.69,188.24 906.50,208.98 C908.70,211.86 910.95,214.74 911.50,215.36 C916.84,221.46 938.50,253.10 940.69,258.00 C941.05,258.83 941.61,259.73 941.93,260.00 C942.44,260.45 944.20,263.48 947.43,269.50 C948.02,270.60 948.72,271.73 949.00,272.00 C949.97,272.97 952.41,277.65 960.72,294.50 C965.33,303.85 969.53,312.28 970.05,313.24 C970.57,314.19 971.00,315.65 971.00,316.49 C971.00,317.32 971.45,318.00 972.00,318.00 C972.55,318.00 973.00,318.66 973.00,319.47 C973.00,320.84 973.55,322.27 978.03,332.50 C979.00,334.70 980.54,338.75 981.47,341.50 C983.05,346.20 983.61,347.67 985.94,353.25 C986.80,355.33 988.29,359.84 988.49,361.00 C988.82,362.93 992.34,373.83 993.08,375.24 C993.59,376.19 994.00,377.89 994.00,379.00 C994.00,380.11 994.43,381.81 994.96,382.76 C995.89,384.45 997.64,391.45 998.64,397.50 C998.91,399.15 999.52,401.40 1000.00,402.50 C1000.48,403.60 1001.09,405.85 1001.36,407.50 C1001.64,409.15 1002.60,414.55 1003.50,419.50 C1006.93,438.32 1008.83,452.32 1009.66,464.75 C1010.00,469.84 1010.66,474.00 1011.14,474.00 C1011.61,474.00 1012.00,490.23 1012.00,510.06 C1012.00,530.17 1011.62,545.88 1011.13,545.58 C1010.66,545.29 1009.97,549.42 1009.60,554.77 C1008.38,572.78 1003.42,604.31 999.10,621.50 C998.08,625.56 996.61,631.60 995.63,635.83 C994.35,641.31 991.86,650.28 991.00,652.50 C990.57,653.60 989.42,657.42 988.44,661.00 C987.46,664.58 986.29,667.93 985.83,668.45 C985.37,668.97 985.00,670.22 985.00,671.21 C985.00,672.21 984.59,673.81 984.09,674.76 C983.59,675.72 982.43,678.75 981.51,681.50 C979.66,687.06 979.13,688.39 976.10,695.24 C974.94,697.85 974.00,700.26 974.00,700.60 C974.00,700.94 972.59,704.20 970.87,707.86 C969.15,711.51 965.75,718.78 963.32,724.00 C960.88,729.22 958.39,734.40 957.77,735.50 C957.15,736.60 955.46,739.75 954.00,742.50 C949.20,751.57 944.74,759.44 942.10,763.52 C937.66,770.38 937.02,771.44 936.10,773.54 C935.61,774.66 934.49,776.18 933.60,776.91 C932.72,777.65 932.00,778.63 932.00,779.10 C932.00,779.57 927.61,786.08 922.25,793.56 C916.89,801.04 911.83,808.18 911.00,809.42 C910.17,810.66 907.22,814.34 904.43,817.59 C901.64,820.84 898.72,824.44 897.93,825.58 C892.19,833.96 861.31,866.01 846.61,878.86 C837.38,886.93 828.16,894.56 820.08,900.84 C818.19,902.30 815.27,904.64 813.58,906.04 C811.88,907.44 809.53,909.24 808.35,910.04 C807.16,910.84 801.99,914.44 796.85,918.03 C783.08,927.66 771.84,934.74 759.50,941.54 C757.30,942.76 752.80,945.29 749.50,947.18 C743.67,950.51 720.06,962.19 713.00,965.25 C711.08,966.08 706.90,967.94 703.72,969.38 C700.55,970.82 697.37,972.00 696.67,972.00 C695.97,972.00 694.97,972.41 694.45,972.91 C693.93,973.41 689.90,975.01 685.50,976.47 C677.51,979.12 674.04,980.45 670.76,982.12 C669.81,982.60 668.36,983.00 667.55,983.00 C666.02,983.00 658.02,985.44 654.50,986.98 C653.40,987.46 651.38,988.07 650.00,988.34 C648.62,988.61 645.03,989.56 642.00,990.44 C638.97,991.33 634.47,992.51 632.00,993.08 C629.53,993.64 625.92,994.50 624.00,994.99 C608.03,999.08 578.40,1003.94 557.13,1005.96 C542.55,1007.34 499.61,1007.97 480.00,1007.08 ZM 542.00 839.06 C552.37,837.50 559.00,836.27 566.50,834.53 C570.35,833.63 574.74,832.64 576.26,832.33 C577.78,832.02 579.27,831.37 579.57,830.88 C579.87,830.40 581.00,830.00 582.07,830.00 C583.15,830.00 584.81,829.59 585.76,829.09 C586.72,828.59 589.75,827.43 592.50,826.51 C599.26,824.26 603.11,822.65 617.00,816.30 C627.82,811.35 629.44,810.56 630.00,810.00 C630.28,809.73 632.30,808.57 634.50,807.43 C636.70,806.29 640.64,804.15 643.25,802.68 C645.86,801.21 650.14,798.81 652.75,797.36 C659.79,793.44 675.59,783.18 683.00,777.72 C691.34,771.57 689.95,772.70 708.99,756.52 C726.58,741.56 763.80,701.43 774.00,686.41 C774.83,685.19 777.28,681.57 779.47,678.35 C781.65,675.13 783.69,672.28 784.00,672.00 C785.16,670.99 799.86,647.28 803.53,640.50 C812.51,623.94 819.99,608.58 823.01,600.52 C823.63,598.87 824.82,595.95 825.67,594.02 C828.14,588.36 828.73,586.81 830.62,581.00 C831.60,577.97 832.76,575.07 833.20,574.55 C833.64,574.03 834.00,572.66 834.00,571.50 C834.00,570.34 834.40,568.97 834.89,568.45 C835.39,567.93 836.26,565.47 836.83,563.00 C837.40,560.53 838.38,556.70 839.00,554.50 C841.24,546.59 843.41,536.91 846.07,523.00 C848.15,512.08 849.08,504.09 851.10,479.50 C852.92,457.30 853.02,452.76 851.95,439.00 C850.37,418.55 848.67,405.82 846.17,395.50 C845.63,393.30 844.64,388.80 843.96,385.50 C843.28,382.20 842.33,379.07 841.86,378.55 C841.39,378.03 841.00,376.78 841.00,375.79 C841.00,374.79 840.60,373.19 840.10,372.24 C839.61,371.28 838.44,368.48 837.50,366.00 C836.56,363.52 835.31,360.60 834.73,359.50 C834.14,358.40 832.14,354.65 830.29,351.17 C828.45,347.69 826.49,344.32 825.95,343.67 C825.42,343.03 822.28,339.02 818.98,334.76 C815.68,330.51 809.95,324.52 806.24,321.45 C799.97,316.27 786.71,307.00 785.56,307.00 C785.28,307.00 782.00,305.53 778.28,303.72 C762.89,296.28 737.83,291.86 722.46,293.87 C718.08,294.44 712.70,295.15 710.50,295.43 C691.31,297.93 667.87,306.37 646.50,318.49 C636.47,324.18 614.04,339.24 606.00,345.68 C603.44,347.73 595.70,353.77 591.22,357.21 C577.18,368.02 565.48,378.48 548.99,394.98 C533.70,410.27 514.96,430.65 507.94,439.61 C503.26,445.59 489.52,462.51 488.37,463.71 C487.73,464.38 484.13,469.56 480.36,475.21 C476.59,480.87 473.16,485.65 472.75,485.83 C472.34,486.02 472.00,486.58 472.00,487.08 C472.00,487.58 467.27,495.41 461.50,504.48 C455.73,513.55 451.00,521.42 451.00,521.98 C451.00,522.54 450.60,523.00 450.12,523.00 C449.63,523.00 448.98,523.79 448.67,524.75 C448.36,525.71 446.54,529.20 444.61,532.50 C440.96,538.74 427.87,564.79 424.01,573.50 C422.78,576.25 420.48,581.34 418.89,584.82 C417.30,588.30 416.00,591.54 416.00,592.04 C416.00,592.53 415.20,594.42 414.23,596.22 C413.25,598.02 411.61,601.97 410.59,605.00 C409.56,608.03 408.33,610.93 407.86,611.45 C407.39,611.97 407.00,613.41 407.00,614.64 C407.00,615.87 406.55,617.16 406.00,617.50 C405.45,617.84 405.00,618.85 405.00,619.75 C405.00,620.65 403.84,625.23 402.43,629.94 C398.27,643.76 396.40,652.27 394.96,664.00 C394.39,668.67 393.39,676.55 392.74,681.50 C391.21,693.15 391.23,724.37 392.77,734.00 C395.50,751.06 396.80,756.97 399.04,762.50 C399.48,763.60 400.64,766.75 401.62,769.50 C402.60,772.25 404.28,776.08 405.36,778.00 C406.44,779.92 408.04,782.77 408.91,784.33 C411.71,789.32 412.42,790.40 416.65,796.00 C426.49,809.03 441.76,821.47 456.50,828.45 C468.22,834.00 473.09,835.63 481.26,836.71 C483.32,836.99 485.26,837.61 485.57,838.11 C485.87,838.60 488.23,839.04 490.81,839.10 C493.39,839.15 496.62,839.58 498.00,840.05 C501.10,841.11 533.17,840.39 542.00,839.06 Z" fill="rgba(0,0,0,1)"/>
</g>
</svg>